<svg width="374" height="207" viewBox="0 0 374 207" fill="none" xmlns="http://www.w3.org/2000/svg">
<path d="M179.819 58.8101L180.652 60.0576L179.819 58.8101ZM373.419 183.584C373.51 182.76 372.916 182.019 372.093 181.928L358.675 180.44C357.852 180.348 357.111 180.942 357.019 181.765C356.928 182.589 357.521 183.33 358.345 183.421L370.272 184.744L368.949 196.671C368.858 197.494 369.451 198.236 370.274 198.327C371.098 198.418 371.839 197.825 371.931 197.002L373.419 183.584ZM-35.5046 4.31544C-35.0827 3.65571 -34.8147 3.42061 -34.7231 3.36389C-34.6984 3.34859 -34.7667 3.397 -34.9101 3.40204C-35.0657 3.40752 -35.1872 3.35772 -35.2464 3.32098C-35.2967 3.28972 -35.1482 3.37539 -34.8928 3.91025C-34.6592 4.39935 -34.4133 5.09737 -34.1553 6.0248C-33.1066 9.79455 -32.1437 16.2336 -30.6303 24.4031C-27.6382 40.5543 -22.5857 62.8681 -10.6526 81.0985C1.34212 99.4231 20.2897 113.609 50.8338 113.365C81.231 113.122 122.954 98.5855 180.652 60.0576L178.986 57.5627C121.467 95.9708 80.3386 110.129 50.8098 110.365C21.428 110.6 3.37561 97.052 -8.14248 79.4555C-19.7222 61.765 -24.6952 39.9714 -27.6805 23.8567C-29.1557 15.8933 -30.1693 9.15978 -31.265 5.22082C-31.5431 4.22108 -31.8437 3.33341 -32.1857 2.61743C-32.5057 1.94721 -32.9616 1.20841 -33.6637 0.772403C-34.0488 0.533287 -34.508 0.386044 -35.0155 0.4039C-35.5108 0.421323 -35.9451 0.591936 -36.3029 0.813542C-36.9762 1.23064 -37.5389 1.92821 -38.0319 2.6991L-35.5046 4.31544ZM180.652 60.0576C189.741 53.9882 197.354 52.9636 204.042 55.2651C210.836 57.6032 216.995 63.4767 222.876 71.9091C228.739 80.3181 234.193 91.0768 239.654 102.903C242.381 108.809 245.101 114.961 247.87 121.203C250.638 127.441 253.454 133.767 256.367 140C262.189 152.459 268.418 164.599 275.462 175.015C282.503 185.424 290.414 194.195 299.637 199.833C308.901 205.495 319.438 207.965 331.598 205.828C343.712 203.7 357.334 197.02 372.865 184.59L370.99 182.247C355.69 194.493 342.526 200.863 331.079 202.874C319.677 204.877 309.876 202.575 301.202 197.273C292.488 191.947 284.864 183.56 277.947 173.334C271.035 163.115 264.885 151.143 259.085 138.73C256.186 132.526 253.381 126.226 250.612 119.987C247.846 113.752 245.116 107.577 242.377 101.645C236.905 89.7939 231.36 78.832 225.336 70.1932C219.329 61.5777 212.712 55.0761 205.018 52.4283C197.217 49.7439 188.63 51.1227 178.986 57.5627L180.652 60.0576Z" fill="url(#paint0_linear_1279_989)"/>
<defs>
<linearGradient id="paint0_linear_1279_989" x1="365.363" y1="180.987" x2="12.5001" y2="77" gradientUnits="userSpaceOnUse">
<stop stop-color="#092E47"/>
<stop offset="1" stop-color="#092E47" stop-opacity="0"/>
</linearGradient>
</defs>
</svg>
