<svg width="504" height="209" viewBox="0 0 504 209" fill="none" xmlns="http://www.w3.org/2000/svg">
<path d="M345.5 186.5L344.363 185.521L345.5 186.5ZM501.744 199.732C502.567 199.64 503.16 198.899 503.069 198.075L501.577 184.658C501.485 183.834 500.744 183.241 499.92 183.333C499.097 183.424 498.504 184.166 498.595 184.989L499.921 196.916L487.995 198.242C487.171 198.333 486.578 199.075 486.67 199.898C486.761 200.722 487.503 201.315 488.326 201.223L501.744 199.732ZM-33.2246 1.84237C-5.2063 39.2663 37.0172 64.3874 83.3044 82.3377C129.598 100.29 180.098 111.123 224.793 119.879C247.162 124.262 268.05 128.118 286.286 132.092C304.531 136.067 320.014 140.137 331.571 144.919C343.219 149.738 350.455 155.112 352.855 161.432C355.193 167.591 353.144 175.324 344.363 185.521L346.637 187.479C355.637 177.026 358.599 168.112 355.659 160.367C352.78 152.783 344.448 147 332.718 142.147C320.898 137.256 305.195 133.141 286.925 129.161C268.647 125.178 247.691 121.308 225.37 116.935C180.684 108.181 130.413 97.3888 84.3891 79.5406C38.3594 61.6902 -3.27929 36.8346 -30.823 0.0444143L-33.2246 1.84237ZM344.363 185.521C334.409 197.082 325.903 202.824 319.157 204.653C312.541 206.446 307.577 204.501 304.257 200.403C300.852 196.201 299.054 189.566 299.373 181.89C299.691 174.246 302.107 165.729 306.923 157.914C316.509 142.358 335.676 129.475 367.025 132.024C398.474 134.581 442.225 152.685 500.641 199.412L502.515 197.07C443.892 150.176 399.575 131.66 367.268 129.034C334.86 126.399 314.58 139.769 304.369 156.34C299.285 164.59 296.715 173.605 296.376 181.766C296.038 189.894 297.912 197.338 301.926 202.292C306.025 207.35 312.228 209.639 319.942 207.548C327.527 205.492 336.515 199.233 346.637 187.479L344.363 185.521Z" fill="url(#paint0_linear_709_1274)"/>
<defs>
<linearGradient id="paint0_linear_709_1274" x1="447.255" y1="169.157" x2="-18.1508" y2="39.9324" gradientUnits="userSpaceOnUse">
<stop stop-color="#092E47"/>
<stop offset="1" stop-color="#092E47" stop-opacity="0"/>
</linearGradient>
</defs>
</svg>
