<svg width="265" height="272" viewBox="0 0 265 272" fill="none" xmlns="http://www.w3.org/2000/svg">
<path d="M185.069 123.656L183.683 123.083L185.069 123.656ZM223.517 132.4L222.341 133.331L223.517 132.4ZM192.179 263.289C191.787 264.018 192.059 264.928 192.789 265.321L204.675 271.721C205.405 272.114 206.314 271.841 206.707 271.112C207.1 270.382 206.827 269.472 206.098 269.08L195.532 263.39L201.221 252.825C201.614 252.095 201.341 251.186 200.611 250.793C199.882 250.4 198.972 250.673 198.58 251.402L192.179 263.289ZM0.965616 3.49961C39.5636 4.38461 94.9634 11.5202 135.852 29.9605C156.299 39.182 172.94 51.1517 182.124 66.4076C191.255 81.5745 193.139 100.193 183.683 123.083L186.455 124.228C196.223 100.585 194.382 80.9516 184.694 64.8603C175.061 48.858 157.789 36.5631 137.085 27.2258C95.6712 8.54846 39.8127 1.38953 1.03438 0.500394L0.965616 3.49961ZM183.683 123.083C180.923 129.763 178.266 132.707 176.17 133.577C175.195 133.981 174.297 133.959 173.417 133.605C172.494 133.234 171.521 132.466 170.551 131.269C168.605 128.864 166.931 125.044 165.839 120.616C164.754 116.212 164.279 111.345 164.628 106.938C164.98 102.496 166.152 98.7092 168.18 96.2747C170.115 93.9503 172.953 92.7036 177.181 93.5042C181.53 94.3277 187.337 97.3286 194.857 103.681C202.353 110.013 211.437 119.576 222.341 133.331L224.692 131.468C213.717 117.623 204.495 107.895 196.793 101.39C189.117 94.9049 182.834 91.5212 177.739 90.5566C172.523 89.569 168.559 91.1307 165.874 94.3548C163.281 97.4688 162.012 101.97 161.637 106.701C161.26 111.466 161.773 116.655 162.927 121.334C164.074 125.99 165.89 130.279 168.219 133.156C169.387 134.599 170.748 135.765 172.298 136.388C173.89 137.028 175.603 137.06 177.32 136.348C180.606 134.984 183.654 131.009 186.455 124.228L183.683 123.083ZM222.341 133.331C243.795 160.394 255.029 181.244 259.296 197.441C263.545 213.569 260.877 225.014 254.567 233.502C248.192 242.078 237.945 247.85 226.621 252.238C215.282 256.632 203.182 259.529 193.069 262.563L193.931 265.437C203.818 262.471 216.224 259.484 227.705 255.035C239.203 250.58 250.091 244.551 256.974 235.292C263.922 225.947 266.635 213.524 262.197 196.677C257.777 179.9 246.255 158.668 224.692 131.468L222.341 133.331Z" fill="url(#paint0_linear_1279_642)"/>
<defs>
<linearGradient id="paint0_linear_1279_642" x1="241" y1="264" x2="125.859" y2="-31.3008" gradientUnits="userSpaceOnUse">
<stop stop-color="#092E47"/>
<stop offset="1" stop-color="#092E47" stop-opacity="0"/>
</linearGradient>
</defs>
</svg>
