<svg width="404" height="347" viewBox="0 0 404 347" fill="none" xmlns="http://www.w3.org/2000/svg">
<path d="M286.355 149.783L287.852 149.869L286.355 149.783ZM1.80253 329.813C0.981314 329.922 0.403996 330.677 0.513055 331.498L2.29027 344.88C2.39933 345.702 3.15347 346.279 3.97469 346.17C4.7959 346.061 5.37322 345.307 5.26416 344.485L3.68441 332.59L15.58 331.01C16.4012 330.901 16.9785 330.147 16.8695 329.326C16.7604 328.504 16.0063 327.927 15.185 328.036L1.80253 329.813ZM403.242 1.38193C384.985 -1.6065 357.26 2.32894 333.145 23.6704C309.013 45.0266 288.677 83.6467 284.857 149.696L287.852 149.869C291.641 84.3536 311.772 46.591 335.133 25.9169C358.511 5.22807 385.304 1.48574 402.758 4.34253L403.242 1.38193ZM284.857 149.696C282.481 190.778 276.388 214.729 268.161 227.674C264.077 234.101 259.51 237.745 254.66 239.486C249.795 241.233 244.472 241.127 238.776 239.736C227.288 236.93 214.79 229.05 202.363 221.608C196.201 217.917 190.073 214.35 184.199 211.678C178.336 209.01 172.605 207.177 167.241 207.051L167.171 210.05C171.944 210.162 177.243 211.809 182.957 214.408C188.66 217.003 194.657 220.489 200.822 224.182C213.051 231.506 226.023 239.71 238.064 242.65C244.132 244.132 250.089 244.315 255.674 242.31C261.275 240.298 266.33 236.148 270.693 229.283C279.362 215.643 285.472 191.015 287.852 149.869L284.857 149.696ZM167.241 207.051C161.586 206.919 156.101 210.039 150.769 215.001C145.413 219.987 139.992 227.037 134.448 235.22C128.898 243.412 123.169 252.823 117.218 262.561C111.258 272.312 105.069 282.403 98.5671 292.012C85.5306 311.279 71.3885 328.375 55.615 336.859C47.7665 341.08 39.5489 343.15 30.8632 342.319C22.1707 341.488 12.8795 337.74 2.9118 330.109L1.0882 332.491C11.3958 340.382 21.2065 344.41 30.5776 345.306C39.9554 346.202 48.763 343.951 57.0361 339.501C73.506 330.642 87.9933 312.992 101.052 293.693C107.598 284.018 113.822 273.87 119.778 264.125C125.741 254.367 131.43 245.024 136.932 236.903C142.441 228.771 147.71 221.948 152.813 217.197C157.942 212.424 162.688 209.946 167.171 210.05L167.241 207.051Z" fill="url(#paint0_linear_675_2168)"/>
<defs>
<linearGradient id="paint0_linear_675_2168" x1="374.68" y1="-23.1229" x2="56.3096" y2="316.437" gradientUnits="userSpaceOnUse">
<stop stop-color="#092E47" stop-opacity="0"/>
<stop offset="1" stop-color="#092E47"/>
</linearGradient>
</defs>
</svg>
