<svg width="276" height="223" viewBox="0 0 276 223" fill="none" xmlns="http://www.w3.org/2000/svg">
<path d="M102.033 136.463L101.699 135L102.033 136.463ZM67.215 176.321L65.9413 177.113L67.215 176.321ZM275.508 157.833C275.569 157.006 274.949 156.287 274.123 156.226L260.66 155.228C259.834 155.166 259.114 155.787 259.053 156.613C258.992 157.439 259.612 158.158 260.438 158.22L272.405 159.107L271.518 171.074C271.457 171.9 272.077 172.619 272.903 172.681C273.729 172.742 274.449 172.122 274.51 171.296L275.508 157.833ZM30.116 0.306731C21.3923 11.6466 12.9545 27.7877 7.32457 45.1263C1.69777 62.455 -1.16963 81.1193 1.39053 97.4795C3.95905 113.893 12.015 128.056 28.2287 136.048C44.3539 143.997 68.2898 145.71 102.367 137.925L101.699 135C67.9252 142.716 44.7919 140.868 29.5551 133.357C14.4069 125.89 6.80801 112.695 4.35445 97.0156C1.89253 81.2833 4.63578 63.1208 10.1779 46.0528C15.7169 28.9945 24.0064 13.1688 32.4938 2.13595L30.116 0.306731ZM102.367 137.925C116.42 134.714 125.477 131.018 130.561 127.129C133.114 125.175 134.78 123.086 135.481 120.872C136.197 118.608 135.845 116.398 134.716 114.39C132.538 110.514 127.447 107.312 121.197 104.978C114.86 102.612 107.009 101.019 98.8833 100.575C82.7589 99.6954 64.9127 103.331 55.9081 115.278C46.7792 127.39 47.3147 147.17 65.9413 177.113L68.4887 175.528C50.0203 145.84 50.3602 127.623 58.3039 117.084C66.3719 106.379 82.8665 102.706 98.7199 103.571C106.583 104 114.13 105.542 120.147 107.789C126.25 110.067 130.468 112.955 132.101 115.859C132.877 117.241 133.055 118.594 132.621 119.967C132.171 121.39 131.005 123.012 128.738 124.746C124.181 128.232 115.645 131.814 101.699 135L102.367 137.925ZM65.9413 177.113C80.9521 201.243 99.2075 214.323 118.809 219.731C138.37 225.128 159.104 222.837 179.032 216.548C218.853 203.982 255.905 175.31 274.991 158.858L273.033 156.586C254.012 172.98 217.342 201.313 178.129 213.687C158.541 219.868 138.429 222.032 119.606 216.839C100.823 211.657 83.154 199.103 68.4887 175.528L65.9413 177.113Z" fill="url(#paint0_linear_789_756)"/>
<defs>
<linearGradient id="paint0_linear_789_756" x1="274.191" y1="172.871" x2="4.53322" y2="28.7904" gradientUnits="userSpaceOnUse">
<stop stop-color="#092E47"/>
<stop offset="1" stop-color="#092E47" stop-opacity="0"/>
</linearGradient>
</defs>
</svg>
