<svg width="905" height="388" viewBox="0 0 905 388" fill="none" xmlns="http://www.w3.org/2000/svg">
<path d="M373.547 344.5L372.771 343.216L373.547 344.5ZM902.783 38.5695C903.61 38.5232 904.243 37.8152 904.197 36.9881L903.443 23.5091C903.397 22.682 902.689 22.049 901.862 22.0952C901.034 22.1415 900.401 22.8496 900.448 23.6767L901.118 35.658L889.137 36.3282C888.31 36.3745 887.677 37.0825 887.723 37.9097C887.769 38.7368 888.477 39.3698 889.304 39.3235L902.783 38.5695ZM-5.96323 328.427C11.5646 334.118 34.3304 343.785 61.3262 353.759C88.244 363.703 119.182 373.875 152.732 380.437C219.846 393.565 297.466 392.255 374.323 345.784L372.771 343.216C296.741 389.188 219.942 390.527 153.307 377.493C119.982 370.974 89.2129 360.863 62.3659 350.944C35.5969 341.055 12.5403 331.281 -5.03676 325.573L-5.96323 328.427ZM374.323 345.784C470.069 287.891 505.491 243.246 530.736 217.248C543.339 204.269 553.202 196.167 566.64 193.155C580.141 190.128 597.493 192.184 625.172 200.253L626.012 197.373C598.257 189.282 580.275 187.023 565.984 190.227C551.631 193.445 541.244 202.12 528.584 215.158C503.3 241.196 468.134 285.555 372.771 343.216L374.323 345.784ZM625.172 200.253C639.413 204.405 652.079 202.667 663.579 196.718C675.026 190.797 685.254 180.74 694.771 168.351C713.759 143.633 730.336 109.023 748.139 78.1714C757.072 62.6909 766.33 48.1165 776.404 36.0415C786.481 23.9632 797.312 14.4611 809.367 9.03487C833.266 -1.72325 862.654 3.28147 901.7 38.1901L903.699 35.9536C864.237 0.672821 833.591 -5.15912 808.135 6.29925C795.512 11.9813 784.336 21.8507 774.101 34.1197C763.862 46.3921 754.503 61.1409 745.541 76.6719C727.553 107.843 711.222 142.01 692.392 166.523C683 178.749 673.092 188.42 662.201 194.054C651.362 199.66 639.488 201.302 626.012 197.373L625.172 200.253Z" fill="url(#paint0_linear_789_594)"/>
<defs>
<linearGradient id="paint0_linear_789_594" x1="901.91" y1="8.00028" x2="46.9101" y2="360.5" gradientUnits="userSpaceOnUse">
<stop stop-color="#092E47"/>
<stop offset="0.0001" stop-color="#092E47"/>
<stop offset="1" stop-color="#092E47" stop-opacity="0"/>
</linearGradient>
</defs>
</svg>
