<svg width="50" height="50" viewBox="0 0 50 50" fill="none" xmlns="http://www.w3.org/2000/svg">
<path d="M26.5625 40.625H14.0625C11.4781 40.625 9.375 38.5219 9.375 35.9375V9.375C9.375 6.79063 11.4781 4.6875 14.0625 4.6875H32.8125C35.3969 4.6875 37.5 6.79063 37.5 9.375V17.2813C37.5 18.1438 38.1984 18.8438 39.0625 18.8438C39.9266 18.8438 40.625 18.1438 40.625 17.2813V9.375C40.625 5.06719 37.1203 1.5625 32.8125 1.5625H14.0625C9.75469 1.5625 6.25 5.06719 6.25 9.375V35.9375C6.25 40.2453 9.75469 43.75 14.0625 43.75H26.5625C27.4266 43.75 28.125 43.05 28.125 42.1875C28.125 41.325 27.4266 40.625 26.5625 40.625Z" fill="#007ED6"/>
<path d="M15.625 14.0625H26.5625C27.4266 14.0625 28.125 13.3625 28.125 12.5C28.125 11.6375 27.4266 10.9375 26.5625 10.9375H15.625C14.7609 10.9375 14.0625 11.6375 14.0625 12.5C14.0625 13.3625 14.7609 14.0625 15.625 14.0625Z" fill="#007ED6"/>
<path d="M30.25 20.3125C30.25 19.45 29.5516 18.75 28.6875 18.75H15.625C14.7609 18.75 14.0625 19.45 14.0625 20.3125C14.0625 21.175 14.7609 21.875 15.625 21.875H28.6875C29.5516 21.875 30.25 21.175 30.25 20.3125Z" fill="#007ED6"/>
<path d="M25.8125 26.5625C25.8125 25.7 25.1141 25 24.25 25H15.625C14.7609 25 14.0625 25.7 14.0625 26.5625C14.0625 27.425 14.7609 28.125 15.625 28.125H24.25C25.1141 28.125 25.8125 27.425 25.8125 26.5625Z" fill="#007ED6"/>
<path d="M15.625 31.25C14.7609 31.25 14.0625 31.95 14.0625 32.8125C14.0625 33.675 14.7609 34.375 15.625 34.375H23.5313C24.3953 34.375 25.0937 33.675 25.0937 32.8125C25.0937 31.95 24.3953 31.25 23.5313 31.25H15.625Z" fill="#007ED6"/>
<path d="M46.875 31.25C46.875 26.0797 42.6703 21.875 37.5 21.875C32.3297 21.875 28.125 26.0797 28.125 31.25C28.125 34.0172 29.3375 36.5 31.25 38.2187V46.0891C31.25 46.9547 31.7266 47.7484 32.4906 48.1578C33.2594 48.5703 34.1781 48.525 34.9031 48.0422L37.5 46.2984L40.1031 48.0453C40.4938 48.3062 40.9437 48.4359 41.3969 48.4359C41.7766 48.4359 42.1594 48.3437 42.5094 48.1562C43.2734 47.7469 43.75 46.9531 43.75 46.0875V38.2172C45.6625 36.5 46.875 34.0172 46.875 31.2484V31.25ZM40.625 44.6312L38.3719 43.1187C37.8438 42.7641 37.1578 42.7641 36.6297 43.1187L34.3766 44.6312V40.0781C35.3562 40.4266 36.4047 40.625 37.5016 40.625C38.5984 40.625 39.6469 40.425 40.6266 40.0781V44.6312H40.625ZM37.5 37.5C34.0531 37.5 31.25 34.6969 31.25 31.25C31.25 27.8031 34.0531 25 37.5 25C40.9469 25 43.75 27.8031 43.75 31.25C43.75 34.6969 40.9469 37.5 37.5 37.5Z" fill="#007ED6"/>
</svg>
