<svg width="50" height="50" viewBox="0 0 50 50" fill="none" xmlns="http://www.w3.org/2000/svg">
<g clip-path="url(#clip0_789_894)">
<path fill-rule="evenodd" clip-rule="evenodd" d="M20.6698 48.2838C22.958 50.5721 26.668 50.5721 28.9563 48.2838L35.1536 42.0865H46.5469C48.454 42.0865 50 40.5404 50 38.6333V22.1021C50 20.195 48.454 18.649 46.5469 18.649H37.5278L36.1656 17.2868C36.1656 17.2868 36.1656 17.2868 36.1656 17.2868C34.3793 15.5004 32.0099 14.6524 29.6701 14.7427H16.1429C15.2743 14.7427 14.4376 15.0701 13.7996 15.6595L10.564 18.649H3.45312C1.54602 18.649 0 20.195 0 22.1021V38.6333C0 40.5404 1.54602 42.0865 3.45312 42.0865H14.4723L20.6698 48.2838C20.6698 48.2838 20.6698 48.2838 20.6698 48.2838ZM29.8125 18.6464C29.8028 18.6469 29.7932 18.6473 29.7835 18.6477C28.6305 18.7013 27.4931 19.1684 26.6126 20.0489L16.686 29.9756C18.8638 31.0162 21.5529 30.633 23.3559 28.8299C23.3559 28.8299 23.3559 28.8299 23.3559 28.8299L26.4169 25.7688C27.7655 24.4203 29.9519 24.4203 31.3004 25.7688L37.2426 31.711C38.9916 33.4601 39.4038 36.0397 38.479 38.1802H46.0937V22.5552H37.3401C36.4242 22.5552 35.5459 22.1914 34.8983 21.5438L33.4034 20.0489C32.4161 19.0615 31.1057 18.594 29.8125 18.6464ZM22.4883 18.649L13.3681 27.7692C12.1099 29.0274 11.8297 31.4851 13.7498 32.7831C17.5491 35.3514 22.7536 34.9565 26.1181 31.592L28.8587 28.8513L34.4804 34.4732C35.2432 35.2359 35.2432 36.4726 34.4804 37.2354L26.1941 45.5217C25.4314 46.2844 24.1947 46.2844 23.4319 45.5217L17.1017 39.1916C16.4542 38.544 15.5759 38.1802 14.66 38.1802H3.90625V22.5552H10.7413C11.6099 22.5552 12.4466 22.2278 13.0846 21.6384L16.3202 18.649H22.4883Z" fill="#007ED6"/>
<path fill-rule="evenodd" clip-rule="evenodd" d="M25 9.76562C23.9213 9.76562 23.0469 8.89118 23.0469 7.8125V2C23.0469 0.921319 23.9213 0.046875 25 0.046875C26.0787 0.046875 26.9531 0.921319 26.9531 2V7.8125C26.9531 8.89118 26.0787 9.76562 25 9.76562Z" fill="#007ED6"/>
<path fill-rule="evenodd" clip-rule="evenodd" d="M13.2202 13.5251C14.0625 12.8512 14.1991 11.6221 13.5252 10.7798L9.52521 5.77982C8.85136 4.93751 7.62227 4.80095 6.77996 5.47479C5.93766 6.14864 5.80109 7.37773 6.47494 8.22004L10.4749 13.22C11.1488 14.0623 12.3779 14.1989 13.2202 13.5251Z" fill="#007ED6"/>
<path fill-rule="evenodd" clip-rule="evenodd" d="M36.0486 13.9515C36.8114 14.7143 38.048 14.7142 38.8108 13.9515L43.3811 9.38105C44.1438 8.6183 44.1438 7.38165 43.381 6.61891C42.6183 5.85618 41.3816 5.8562 40.6189 6.61895L36.0486 11.1894C35.2859 11.9521 35.2859 13.1888 36.0486 13.9515Z" fill="#007ED6"/>
</g>
<defs>
<clipPath id="clip0_789_894">
<rect width="50" height="50" fill="white"/>
</clipPath>
</defs>
</svg>
