<svg width="50" height="50" viewBox="0 0 50 50" fill="none" xmlns="http://www.w3.org/2000/svg">
<path d="M24.9999 34.2052C12.849 34.2052 12.849 15.7948 24.9999 15.7948C37.0127 15.7948 37.5318 34.2052 24.9999 34.2052ZM24.9999 19.4769C17.6357 19.4769 17.6357 30.5231 24.9999 30.5231C32.364 30.5231 32.364 19.4769 24.9999 19.4769Z" fill="#007ED6"/>
<path d="M24.9999 41.5694C15.8886 41.5694 7.16395 36.7293 1.06643 28.2881C0.373249 27.3319 0 26.1811 0 25C0 23.819 0.373249 22.6682 1.06643 21.7119C7.16395 13.2708 15.8886 8.43066 24.9999 8.43066C34.1113 8.43066 42.8359 13.2708 48.9335 21.7119C49.6266 22.6682 49.9999 23.819 49.9999 25C49.9999 26.1811 49.6266 27.3319 48.9335 28.2881C42.8359 36.7293 34.1113 41.5694 24.9999 41.5694ZM4.04339 26.1304C9.52601 33.7118 16.9675 37.8873 24.9999 37.8873C33.0324 37.8873 40.4739 33.7118 45.9565 26.1304C46.195 25.8014 46.3234 25.4055 46.3234 24.9991C46.3234 24.5928 46.195 24.1968 45.9565 23.8678C40.4739 16.2882 33.0324 12.1127 24.9999 12.1127C16.9675 12.1127 9.52601 16.2882 4.04339 23.8696C3.80489 24.1986 3.67647 24.5946 3.67647 25.0009C3.67647 25.4073 3.80489 25.8033 4.04339 26.1323V26.1304Z" fill="#007ED6"/>
</svg>
