<svg width="42" height="46" viewBox="0 0 42 46" fill="none" xmlns="http://www.w3.org/2000/svg">
<path d="M21.0001 45.9167C20.2356 45.9183 19.4782 45.7697 18.771 45.4792C13.2664 43.319 8.5439 39.5446 5.22362 34.6515C1.90334 29.7585 0.140561 23.9757 0.166792 18.0625V9.58333C0.166193 8.16055 0.651051 6.78015 1.54124 5.67026C2.43142 4.56037 3.67365 3.78743 5.06263 3.47916L19.646 0.229158C20.539 0.0414527 21.4613 0.0414527 22.3543 0.229158L36.9376 3.47916C38.3266 3.78743 39.5688 4.56037 40.459 5.67026C41.3492 6.78015 41.8341 8.16055 41.8335 9.58333V18.0625C41.8553 23.9772 40.091 29.7608 36.7716 34.6563C33.4521 39.5519 28.7321 43.3313 23.2293 45.5C22.5179 45.7737 21.7624 45.9149 21.0001 45.9167ZM21.0001 4.24999H20.5418L5.95846 7.49999C5.4885 7.60583 5.06974 7.87126 4.77346 8.25111C4.47718 8.63095 4.32169 9.10174 4.33346 9.58333V18.0625C4.31244 23.1428 5.8269 28.1108 8.67831 32.3155C11.5297 36.5201 15.585 39.7651 20.3126 41.625C20.7559 41.7912 21.2444 41.7912 21.6876 41.625C26.4152 39.7651 30.4705 36.5201 33.3219 32.3155C36.1734 28.1108 37.6878 23.1428 37.6668 18.0625V9.58333C37.6786 9.10174 37.5231 8.63095 37.2268 8.25111C36.9305 7.87126 36.5118 7.60583 36.0418 7.49999L21.4585 4.24999H21.0001ZM19.396 28.7708C18.8524 28.7741 18.329 28.5648 17.9376 28.1875L13.1876 23.5208C12.9924 23.3272 12.8374 23.0967 12.7316 22.8429C12.6258 22.589 12.5714 22.3167 12.5714 22.0417C12.5714 21.7666 12.6258 21.4943 12.7316 21.2405C12.8374 20.9866 12.9924 20.7562 13.1876 20.5625C13.578 20.1745 14.106 19.9567 14.6564 19.9567C15.2068 19.9567 15.7348 20.1745 16.1251 20.5625L19.4168 23.7917L27.9793 15.4583C28.1749 15.2654 28.4066 15.113 28.6611 15.0096C28.9157 14.9063 29.1881 14.8541 29.4628 14.8561C29.7375 14.858 30.0091 14.914 30.2622 15.0209C30.5152 15.1278 30.7447 15.2835 30.9376 15.4792C31.1305 15.6748 31.283 15.9065 31.3863 16.161C31.4896 16.4155 31.5418 16.6879 31.5399 16.9626C31.538 17.2373 31.4819 17.509 31.375 17.762C31.2681 18.0151 31.1124 18.2446 30.9168 18.4375L20.896 28.2917C20.4779 28.6415 19.9394 28.8135 19.396 28.7708Z" fill="#007ED6"/>
</svg>
