<svg width="46" height="46" viewBox="0 0 46 46" fill="none" xmlns="http://www.w3.org/2000/svg">
<path d="M30.8826 17.54L30.8826 17.54L25.3454 23L30.8817 28.4592C31.0474 28.6145 31.1794 28.8021 31.2698 29.0105C31.3603 29.2192 31.407 29.4443 31.407 29.6719C31.407 29.8994 31.3603 30.1245 31.2698 30.3333C31.1794 30.5416 31.0474 30.7292 30.8818 30.8845C30.7267 31.0381 30.5428 31.1597 30.3407 31.2422C30.1381 31.325 29.9212 31.3669 29.7024 31.3656M30.8826 17.54L29.703 31.2656M30.8826 17.54L30.8843 17.5382C31.0381 17.379 31.159 17.191 31.2402 16.9851C31.3213 16.7791 31.3611 16.5592 31.3572 16.3378C31.3534 16.1165 31.3059 15.8981 31.2177 15.6951C31.1294 15.4921 31.002 15.3084 30.8428 15.1546C30.6836 15.0009 30.4956 14.8799 30.2896 14.7988C30.0837 14.7177 29.8637 14.6779 29.6424 14.6817C29.4211 14.6856 29.2027 14.733 28.9996 14.8213C28.7969 14.9094 28.6135 15.0366 28.4598 15.1955C28.4596 15.1957 28.4594 15.196 28.4592 15.1962L22.9999 20.6555M30.8826 17.54L22.9999 20.6555M29.7024 31.3656L29.703 31.2656M29.7024 31.3656C29.7025 31.3656 29.7025 31.3656 29.7026 31.3656L29.703 31.2656M29.7024 31.3656C29.2664 31.3638 28.8485 31.1906 28.5388 30.8835L28.5385 30.8832L23.0004 25.3451M29.703 31.2656C29.2931 31.2639 28.9003 31.1012 28.6093 30.8125L23.0706 25.2738L23.0004 25.3451M23.0004 25.3451L17.5398 30.8827L17.5391 30.8835C17.2294 31.1906 16.8115 31.3638 16.3755 31.3656L22.9297 25.2743L23.0004 25.3451ZM22.9999 20.6555L17.5393 15.1949L17.5396 15.1947L17.5337 15.1897C17.2156 14.9173 16.8065 14.775 16.3881 14.7912C15.9697 14.8073 15.5728 14.9808 15.2767 15.2769C14.9807 15.5729 14.8072 15.9698 14.791 16.3883C14.7749 16.8067 14.9172 17.2158 15.1896 17.5338L15.1893 17.534L15.1948 17.5395L20.6558 23.0005L15.1946 28.5389C15.1945 28.539 15.1944 28.5391 15.1943 28.5392L15.1943 28.5392L22.9999 20.6555ZM25.203 23L25.2742 23.0702L25.203 23ZM27.2877 44.5529C31.5504 43.7052 35.466 41.6125 38.5393 38.5395C40.5801 36.4989 42.199 34.0763 43.3035 31.41C44.408 28.7437 44.9765 25.886 44.9765 23C44.9765 20.114 44.408 17.2563 43.3035 14.59C42.199 11.9237 40.5801 9.50114 38.5393 7.46055C35.466 4.38751 31.5504 2.29482 27.2877 1.44709C23.0251 0.599361 18.6068 1.03467 14.5915 2.69797C10.5762 4.36127 7.14431 7.17787 4.72976 10.7916C2.31522 14.4053 1.02646 18.6539 1.02646 23C1.02646 27.3462 2.31522 31.5947 4.72976 35.2084C7.14431 38.8222 10.5762 41.6388 14.5915 43.3021C18.6068 44.9654 23.0251 45.4007 27.2877 44.5529ZM26.6449 4.71927C30.2609 5.43364 33.5841 7.20345 36.1949 9.80522C37.9336 11.5379 39.3131 13.5967 40.2544 15.8636C41.1958 18.1306 41.6803 20.561 41.6803 23.0156C41.6803 25.4702 41.1958 27.9007 40.2544 30.1676C39.3131 32.4346 37.9336 34.4934 36.1949 36.2261C33.5841 38.8278 30.2609 40.5976 26.6449 41.312C23.0289 42.0264 19.2824 41.6533 15.8783 40.2398C12.4742 38.8263 9.56532 36.4359 7.51889 33.3703C5.47247 30.3047 4.3803 26.7015 4.3803 23.0156C4.3803 19.3298 5.47247 15.7266 7.51889 12.661C9.56532 9.59541 12.4742 7.20496 15.8783 5.79148C19.2824 4.37801 23.0289 4.0049 26.6449 4.71927Z" fill="#007ED6" stroke="#007ED6" stroke-width="0.2"/>
</svg>
