<svg width="30" height="50" viewBox="0 0 30 50" fill="none" xmlns="http://www.w3.org/2000/svg">
<path d="M4.50981 50H25.4901C26.5307 49.9988 27.5284 49.5849 28.2642 48.8491C29.0001 48.1132 29.414 47.1155 29.4152 46.0749V3.9251C29.414 2.88446 29.0001 1.88679 28.2642 1.15095C27.5284 0.415107 26.5307 0.00118894 25.4901 0L4.50981 0C3.46918 0.00118894 2.47151 0.415107 1.73566 1.15095C0.999824 1.88679 0.585906 2.88446 0.584717 3.9251V46.0749C0.585906 47.1155 0.999824 48.1132 1.73566 48.8491C2.47151 49.5849 3.46918 49.9988 4.50981 50ZM20.6755 3.125L20.1605 4.71016H9.83941L9.32437 3.125H20.6755ZM3.70972 3.9251C3.7099 3.71295 3.79425 3.50955 3.94426 3.35954C4.09427 3.20953 4.29767 3.12518 4.50981 3.125H6.03853L7.21811 6.75547C7.32008 7.06929 7.51877 7.34278 7.78572 7.53674C8.05268 7.73069 8.37418 7.83516 8.70415 7.83516H21.2957C21.6256 7.83516 21.9471 7.73069 22.2141 7.53674C22.481 7.34278 22.6797 7.06929 22.7817 6.75547L23.9613 3.125H25.4901C25.7022 3.12518 25.9056 3.20953 26.0556 3.35954C26.2057 3.50955 26.29 3.71295 26.2902 3.9251V46.0749C26.29 46.287 26.2057 46.4904 26.0556 46.6405C25.9056 46.7905 25.7022 46.8748 25.4901 46.875H4.50981C4.29767 46.8748 4.09427 46.7905 3.94426 46.6405C3.79425 46.4904 3.7099 46.287 3.70972 46.0749V3.9251ZM9.88413 43.6463C9.88413 43.2319 10.0488 42.8345 10.3418 42.5414C10.6348 42.2484 11.0322 42.0838 11.4466 42.0838H18.5533C18.9677 42.0838 19.3651 42.2484 19.6581 42.5414C19.9512 42.8345 20.1158 43.2319 20.1158 43.6463C20.1158 44.0607 19.9512 44.4581 19.6581 44.7511C19.3651 45.0442 18.9677 45.2088 18.5533 45.2088H11.4466C11.0322 45.2088 10.6348 45.0442 10.3418 44.7511C10.0488 44.4581 9.88413 44.0607 9.88413 43.6463Z" fill="#007ED6"/>
</svg>
