<svg width="50" height="50" viewBox="0 0 50 50" fill="none" xmlns="http://www.w3.org/2000/svg">
<path d="M28.1113 0.00846772C27.3059 -0.0759073 26.575 0.479073 26.4763 1.28015C26.3762 2.08405 26.9455 2.81511 27.7479 2.91521C29.7363 3.16267 31.679 3.86667 33.5229 4.64489C34.2766 4.95798 35.13 4.60485 35.4427 3.86384C35.7559 3.11716 35.4069 2.25876 34.6616 1.94411C32.5687 1.06286 30.3643 0.288839 28.1113 0.00846772Z" fill="#007ED6"/>
<path d="M44.5595 11.9047C45.2046 11.4154 45.3305 10.4956 44.8413 9.85183C43.4694 8.04509 41.8572 6.43288 40.0505 5.061C39.4054 4.57468 38.4884 4.69626 37.9976 5.34284C37.5084 5.98659 37.6343 6.90641 38.2795 7.39567C39.8745 8.60593 41.2964 10.0278 42.5066 11.6228C42.9974 12.2693 43.9159 12.3916 44.5595 11.9047Z" fill="#007ED6"/>
<path d="M46.0386 14.4596C45.2933 14.7743 44.9442 15.6326 45.2575 16.3793C46.0357 18.2232 46.8343 20.2635 47.0818 22.2519C47.1778 23.0289 47.8804 23.621 48.7169 23.5236C49.5194 23.4235 50.0888 22.6925 49.9886 21.8886C49.7082 19.6355 48.8394 17.3334 47.9583 15.2406C47.6436 14.4953 46.7839 14.1506 46.0386 14.4596Z" fill="#007ED6"/>
<path d="M15.3384 1.94413C14.5931 2.25888 14.244 3.11718 14.5573 3.86386C14.8706 4.60643 15.7252 4.95731 16.477 4.64491C18.321 3.86669 20.2636 3.16268 22.252 2.91522C23.0546 2.81513 23.6239 2.08407 23.5237 1.28016C23.4236 0.47909 22.6897 -0.0759878 21.8887 0.0084849C19.6356 0.288856 17.4312 1.06288 15.3384 1.94413Z" fill="#007ED6"/>
<path d="M25 49.9999C37.5369 49.9999 48.4393 40.5338 49.9885 28.1113C50.0886 27.3087 49.5192 26.5763 48.7168 26.4762C47.91 26.3861 47.1805 26.9455 47.0817 27.7479C45.7142 38.7085 36.0621 47.0702 25 47.0702C12.8836 47.0702 2.92968 37.1163 2.92968 25C2.92968 19.6598 5.04852 14.4629 8.49608 10.4937V10.9787C8.49608 11.7884 9.15125 12.4435 9.96092 12.4435C10.7706 12.4435 11.4258 11.7884 11.4258 10.9787V6.83593C11.4258 6.02627 10.7706 5.37109 9.96092 5.37109H5.81679C5.00712 5.37109 4.35194 6.02627 4.35194 6.83593C4.35194 7.6456 5.00712 8.2998 5.81679 8.2998H6.52225C2.46474 12.8366 0 18.8235 0 25C0 38.7314 11.2685 49.9999 25 49.9999Z" fill="#007ED6"/>
<path d="M7.32422 25C7.32422 34.6932 15.3068 42.6758 25 42.6758C34.6932 42.6758 42.6758 34.6932 42.6758 25C42.6758 15.3068 34.6932 7.32422 25 7.32422C15.3068 7.32422 7.32422 15.3068 7.32422 25ZM26.4648 19.1406C26.4648 18.331 27.12 17.6758 27.9297 17.6758C28.7394 17.6758 29.3945 18.331 29.3945 19.1406V23.5352H32.3242V19.1406C32.3242 18.331 32.9794 17.6758 33.7891 17.6758C34.5987 17.6758 35.2539 18.331 35.2539 19.1406V30.8594C35.2539 31.669 34.5987 32.3242 33.7891 32.3242C32.9794 32.3242 32.3242 31.669 32.3242 30.8594V26.4648H27.9297C27.12 26.4648 26.4648 25.8097 26.4648 25V19.1406ZM19.1406 20.6055C18.3324 20.6055 17.6758 21.2621 17.6758 22.0703C17.6758 22.88 17.0206 23.5352 16.2109 23.5352C15.4013 23.5352 14.7461 22.88 14.7461 22.0703C14.7461 19.6471 16.7174 17.6758 19.1406 17.6758C21.5639 17.6758 23.5352 19.6471 23.5352 22.0703C23.5352 25 21.5854 26.462 20.0189 27.6364C19.1512 28.2877 18.5332 28.8086 18.1408 29.3945H22.0703C22.88 29.3945 23.5352 30.0497 23.5352 30.8594C23.5352 31.669 22.88 32.3242 22.0703 32.3242H16.2109C15.4013 32.3242 14.7461 31.669 14.7461 30.8594C14.7461 27.9297 16.6959 26.4677 18.2623 25.2933C19.7587 24.1703 20.6055 23.4665 20.6055 22.0703C20.6055 21.262 19.9489 20.6055 19.1406 20.6055Z" fill="#007ED6"/>
</svg>
