<svg width="46" height="50" viewBox="0 0 46 50" fill="none" xmlns="http://www.w3.org/2000/svg">
<path d="M23.0373 0.766968C17.188 0.766968 11.8941 1.54662 7.96188 2.85738C5.99575 3.51276 4.36703 4.29391 3.15347 5.2503C1.94056 6.2062 1.0809 7.43269 1.07999 8.85773L1.07886 41.2208C1.07886 42.6468 1.94104 43.8718 3.1546 44.8282C4.36816 45.7846 5.99688 46.5658 7.96301 47.2212C11.8953 48.5319 17.1903 49.3116 23.0395 49.3116C28.8887 49.3116 34.1838 48.5319 38.116 47.2212C40.0821 46.5658 41.7109 45.7846 42.9244 44.8282C44.138 43.8718 45.0002 42.6468 45.0002 41.2208V8.85773H44.999C44.9981 7.43269 44.1396 6.2062 42.9267 5.2503C41.7131 4.29391 40.0799 3.51276 38.1138 2.85738C34.1815 1.54662 28.8865 0.766968 23.0373 0.766968ZM23.0373 3.07974C28.6782 3.07974 33.787 3.8513 37.3846 5.05051C39.1834 5.65011 40.6012 6.36457 41.4932 7.06756C42.3852 7.77054 42.6874 8.37096 42.6874 8.85999C42.6874 9.34902 42.3852 9.9438 41.4932 10.6468C40.6012 11.3498 39.1834 12.0653 37.3846 12.665C33.787 13.8641 28.6782 14.6357 23.0373 14.6357C17.3963 14.6357 12.2932 13.8641 8.69556 12.665C6.89675 12.0653 5.47897 11.3498 4.58696 10.6468C3.69496 9.9438 3.39276 9.34902 3.39276 8.85999C3.39276 8.37096 3.69496 7.77054 4.58696 7.06756C5.47897 6.36457 6.89675 5.65011 8.69556 5.05051C12.2932 3.8513 17.3963 3.07974 23.0373 3.07974ZM3.3905 12.6401C4.57653 13.5164 6.11863 14.2437 7.96188 14.8581C11.8941 16.1688 17.188 16.9485 23.0373 16.9485C28.8865 16.9485 34.1815 16.1688 38.1138 14.8581C39.9568 14.2437 41.5021 13.5163 42.6885 12.6401L42.6874 19.2601C42.6874 19.7492 42.3852 20.3496 41.4932 21.0526C40.6012 21.7556 39.1834 22.4666 37.3846 23.0662C33.787 24.2654 28.6782 25.0415 23.0373 25.0415C17.3963 25.0415 12.2932 24.2654 8.69556 23.0662C6.89675 22.4666 5.47897 21.7556 4.58696 21.0526C3.69496 20.3496 3.39276 19.7492 3.39276 19.2601L3.3905 12.6401ZM3.3905 23.0414C4.57649 23.9176 6.11877 24.6439 7.96188 25.2582C11.8941 26.569 17.188 27.3487 23.0373 27.3487C28.8865 27.3487 34.1815 26.569 38.1138 25.2582C39.9567 24.6439 41.5021 23.9175 42.6885 23.0414L42.6874 30.8173C42.6874 31.3063 42.3852 31.9056 41.4932 32.6086C40.6012 33.3116 39.1834 34.0271 37.3846 34.6267C33.787 35.8259 28.6782 36.5975 23.0373 36.5975C17.3963 36.5975 12.2932 35.8259 8.69556 34.6267C6.89675 34.0271 5.47897 33.3116 4.58696 32.6086C3.69496 31.9056 3.39276 31.3063 3.39276 30.8173L3.3905 23.0414ZM3.3905 34.6019C4.57653 35.4782 6.11863 36.2054 7.96188 36.8199C11.8941 38.1306 17.188 38.9103 23.0373 38.9103C28.8865 38.9103 34.1815 38.1306 38.1138 36.8199C39.9568 36.2055 41.5021 35.4781 42.6885 34.6019V41.2208C42.6885 41.7098 42.3863 42.3091 41.4943 43.0121C40.6023 43.7151 39.1845 44.4284 37.3857 45.028C33.7881 46.2272 28.6805 46.9999 23.0395 46.9999C17.3985 46.9999 12.2909 46.2272 8.6933 45.028C6.89449 44.4284 5.47671 43.7151 4.58471 43.0121C3.6927 42.3091 3.3905 41.7098 3.3905 41.2208V34.6019Z" fill="#007ED6"/>
<path fill-rule="evenodd" clip-rule="evenodd" d="M0.779937 8.85749C0.780937 7.30315 1.71838 5.99924 2.96773 5.01463L3.15342 5.25025C1.94051 6.20615 1.08085 7.43264 1.07994 8.85769L1.07881 41.2207C1.07881 42.6468 1.94099 43.8718 3.15455 44.8282C4.36811 45.7846 5.99683 46.5657 7.96296 47.2211C11.8952 48.5319 17.1903 49.3115 23.0395 49.3115C28.8887 49.3115 34.1837 48.5319 38.116 47.2211C40.0821 46.5657 41.7108 45.7846 42.9244 44.8282C44.1379 43.8718 45.0001 42.6468 45.0001 41.2207V8.85769H44.999C44.9981 7.43264 44.1395 6.20615 42.9266 5.25025C41.7131 4.29386 40.0798 3.51271 38.1137 2.85733C34.1814 1.54658 28.8864 0.766919 23.0372 0.766919C17.188 0.766919 11.8941 1.54658 7.96183 2.85733C5.9957 3.51271 4.36698 4.29386 3.15342 5.25025L2.96773 5.01463C4.21892 4.02858 5.88348 3.23389 7.86696 2.57273C11.8373 1.24927 17.1648 0.466919 23.0372 0.466919C28.9096 0.466919 34.2382 1.24927 38.2086 2.57273C40.1918 3.23381 41.861 4.02847 43.1123 5.01463C44.2806 5.93536 45.175 7.13515 45.2871 8.55768H45.3001V41.2207C45.3001 42.7766 44.3596 44.0791 43.1101 45.0638C41.8589 46.0499 40.1943 46.8445 38.2108 47.5057C34.2405 48.8292 28.9119 49.6115 23.0395 49.6115C17.167 49.6115 11.8385 48.8292 7.86809 47.5057C5.88461 46.8445 4.22006 46.0499 2.96886 45.0638C1.7193 44.0791 0.778809 42.7766 0.778809 41.2207L0.779937 8.85749ZM4.77261 7.30314C3.9113 7.98192 3.69271 8.50512 3.69271 8.85994C3.69271 9.21404 3.9104 9.73161 4.77261 10.4111C5.62729 11.0847 7.00951 11.7867 8.79037 12.3803C12.3499 13.5668 17.4195 14.3357 23.0372 14.3357C28.6549 14.3357 33.7302 13.5668 37.2897 12.3803C39.0705 11.7867 40.4528 11.0847 41.3074 10.4111C42.1696 9.73161 42.3873 9.21404 42.3873 8.85994C42.3873 8.50512 42.1687 7.98192 41.3074 7.30314L41.4931 7.06751C42.3851 7.77049 42.6873 8.37091 42.6873 8.85994C42.6873 9.34897 42.3851 9.94376 41.4931 10.6467C40.6011 11.3497 39.1833 12.0653 37.3845 12.6649C33.7869 13.8641 28.6782 14.6357 23.0372 14.6357C17.3962 14.6357 12.2931 13.8641 8.69551 12.6649C6.8967 12.0653 5.47892 11.3497 4.58691 10.6467C3.69491 9.94376 3.39271 9.34897 3.39271 8.85994C3.39271 8.37091 3.69491 7.77049 4.58691 7.06751C5.47892 6.36452 6.8967 5.65006 8.69551 5.05047C12.2931 3.85126 17.3962 3.07969 23.0372 3.07969C28.6782 3.07969 33.7869 3.85126 37.3845 5.05047C39.1833 5.65006 40.6011 6.36452 41.4931 7.06751L41.3074 7.30314C40.4528 6.62962 39.0707 5.92873 37.2897 5.33507C33.7302 4.14856 28.6549 3.3797 23.0372 3.3797C17.4195 3.3797 12.3499 4.14855 8.79037 5.33507C7.00936 5.92873 5.62721 6.62962 4.77261 7.30314ZM3.39271 19.2601C3.39271 19.7491 3.69491 20.3496 4.58691 21.0525C5.47892 21.7555 6.8967 22.4666 8.69551 23.0662C12.2931 24.2654 17.3962 25.0415 23.0372 25.0415C28.6782 25.0415 33.7869 24.2654 37.3845 23.0662C39.1833 22.4666 40.6011 21.7555 41.4931 21.0525C42.3851 20.3496 42.6873 19.7491 42.6873 19.2601L42.6885 12.6401C42.5909 12.7121 42.4908 12.7832 42.3884 12.8533C41.2458 13.6352 39.8052 14.2942 38.1137 14.858C34.1814 16.1688 28.8864 16.9485 23.0372 16.9485C17.188 16.9485 11.8941 16.1688 7.96183 14.858C6.2703 14.2942 4.83238 13.6353 3.69053 12.8534C3.58811 12.7833 3.48808 12.7122 3.39046 12.6401L3.39271 19.2601ZM3.69065 13.2149L3.69271 19.26C3.69271 19.6148 3.91131 20.1381 4.77261 20.8169C5.62696 21.4902 7.00891 22.1878 8.79037 22.7816C12.3501 23.9682 17.4197 24.7415 23.0372 24.7415C28.6547 24.7415 33.73 23.9681 37.2897 22.7816C39.0711 22.1878 40.4531 21.4902 41.3074 20.8169C42.1687 20.1381 42.3873 19.6149 42.3873 19.26L42.3884 13.2146C41.244 13.9674 39.8343 14.6007 38.2086 15.1426C34.2382 16.4661 28.9096 17.2484 23.0372 17.2484C17.1648 17.2484 11.8373 16.4661 7.86696 15.1426C6.24113 14.6007 4.83404 13.9676 3.69065 13.2149ZM3.39271 30.8172C3.39271 31.3062 3.69491 31.9055 4.58691 32.6085C5.47892 33.3115 6.8967 34.0271 8.69551 34.6267C12.2931 35.8259 17.3962 36.5975 23.0372 36.5975C28.6782 36.5975 33.7869 35.8259 37.3845 34.6267C39.1833 34.0271 40.6011 33.3115 41.4931 32.6085C42.3851 31.9055 42.6873 31.3062 42.6873 30.8172L42.6885 23.0414C42.5909 23.1134 42.4908 23.1845 42.3884 23.2545C41.2458 24.0362 39.805 24.6944 38.1137 25.2582C34.1814 26.5689 28.8864 27.3486 23.0372 27.3486C17.188 27.3486 11.8941 26.5689 7.96183 25.2582C6.27043 24.6944 4.83237 24.0364 3.69052 23.2547C3.5881 23.1846 3.48807 23.1135 3.39046 23.0414L3.39271 30.8172ZM3.69062 23.616L3.69271 30.8171C3.69271 31.1718 3.91112 31.694 4.77261 32.3729C5.62729 33.0465 7.00951 33.7485 8.79037 34.3421C12.3499 35.5286 17.4195 36.2975 23.0372 36.2975C28.6549 36.2975 33.7302 35.5286 37.2896 34.3421C39.0705 33.7485 40.4527 33.0465 41.3074 32.3729C42.1689 31.694 42.3873 31.1719 42.3873 30.8172L42.3884 23.6158C41.2439 24.3684 39.8341 25.0009 38.2086 25.5428C34.2382 26.8663 28.9096 27.6486 23.0372 27.6486C17.1648 27.6486 11.8373 26.8663 7.86696 25.5428C6.24134 25.0009 4.83409 24.3686 3.69062 23.616ZM3.39046 34.6019V41.2207C3.39046 41.7098 3.69265 42.3091 4.58466 43.0121C5.47666 43.715 6.89444 44.4284 8.69325 45.028C12.2909 46.2272 17.3985 46.9999 23.0395 46.9999C28.6804 46.9999 33.7881 46.2272 37.3857 45.028C39.1845 44.4284 40.6023 43.715 41.4943 43.0121C42.3863 42.3091 42.6885 41.7098 42.6885 41.2207V34.6019C42.5909 34.6739 42.4909 34.745 42.3885 34.815C41.2458 35.5969 39.8052 36.256 38.1137 36.8198C34.1814 38.1306 28.8864 38.9102 23.0372 38.9102C17.188 38.9102 11.8941 38.1306 7.96183 36.8198C6.27027 36.256 4.83232 35.5971 3.69046 34.8152C3.58806 34.7451 3.48805 34.674 3.39046 34.6019ZM3.69046 35.1765V41.2207C3.69046 41.5754 3.90887 42.0975 4.77035 42.7764C5.62487 43.4499 7.00696 44.1497 8.78812 44.7434C12.3477 45.9299 17.4218 46.6999 23.0395 46.6999C28.6571 46.6999 33.7312 45.9299 37.2908 44.7434C39.072 44.1497 40.454 43.4499 41.3086 42.7764C42.1701 42.0975 42.3885 41.5754 42.3885 41.2207V35.1763C41.244 35.9292 39.8344 36.5625 38.2086 37.1044C34.2382 38.4279 28.9096 39.2102 23.0372 39.2102C17.1648 39.2102 11.8373 38.4279 7.86696 37.1044C6.24104 36.5624 4.83388 35.9293 3.69046 35.1765Z" fill="#007ED6"/>
<path d="M37.9787 38.2482C37.6733 38.2537 37.3825 38.3801 37.1702 38.5997C36.9578 38.8193 36.8411 39.1141 36.8457 39.4195V41.7281C36.8366 41.885 36.8596 42.0422 36.9133 42.19C36.9671 42.3377 37.0505 42.4729 37.1583 42.5873C37.2662 42.7016 37.3964 42.7928 37.5407 42.8551C37.6851 42.9174 37.8406 42.9495 37.9979 42.9495C38.1551 42.9495 38.3107 42.9174 38.455 42.8551C38.5994 42.7928 38.7295 42.7016 38.8374 42.5873C38.9453 42.4729 39.0287 42.3377 39.0824 42.19C39.1362 42.0422 39.1592 41.885 39.15 41.7281V39.4195C39.1524 39.265 39.1236 39.1117 39.0656 38.9685C39.0076 38.8254 38.9214 38.6953 38.8121 38.5861C38.7029 38.4768 38.5728 38.3907 38.4297 38.3326C38.2865 38.2746 38.1332 38.2459 37.9787 38.2482Z" fill="#007ED6"/>
<path fill-rule="evenodd" clip-rule="evenodd" d="M37.9732 37.9483L37.9741 37.9483C38.1688 37.9454 38.362 37.9816 38.5424 38.0547C38.7227 38.1278 38.8866 38.2364 39.0242 38.374C39.1619 38.5117 39.2704 38.6755 39.3436 38.8559C39.4164 39.0355 39.4526 39.2279 39.45 39.4217V41.7199C39.4601 41.9146 39.431 42.1094 39.3643 42.2926C39.2966 42.4788 39.1915 42.6491 39.0556 42.7932C38.9197 42.9373 38.7557 43.0521 38.5738 43.1306C38.3919 43.2091 38.1959 43.2495 37.9978 43.2495C37.7998 43.2495 37.6038 43.2091 37.4218 43.1306C37.2399 43.0521 37.076 42.9373 36.9401 42.7932C36.8041 42.6491 36.6991 42.4788 36.6314 42.2926C36.5647 42.1094 36.5355 41.9146 36.5457 41.7199V39.4217C36.5405 39.0377 36.6874 38.6673 36.9545 38.3912C37.2221 38.1146 37.5884 37.9553 37.9732 37.9483ZM36.8457 39.4196V41.7282C36.8365 41.8851 36.8595 42.0423 36.9133 42.19C36.967 42.3378 37.0504 42.473 37.1583 42.5874C37.2662 42.7017 37.3963 42.7929 37.5407 42.8552C37.685 42.9174 37.8406 42.9495 37.9978 42.9495C38.155 42.9495 38.3106 42.9174 38.455 42.8552C38.5993 42.7929 38.7295 42.7017 38.8373 42.5874C38.9452 42.473 39.0286 42.3378 39.0824 42.19C39.1361 42.0423 39.1591 41.8851 39.15 41.7282V39.4196C39.1523 39.2651 39.1236 39.1118 39.0655 38.9686C39.0075 38.8255 38.9213 38.6954 38.8121 38.5861C38.7028 38.4769 38.5728 38.3908 38.4296 38.3327C38.2865 38.2747 38.1331 38.2459 37.9787 38.2483C37.6732 38.2538 37.3825 38.3802 37.1701 38.5998C36.9577 38.8193 36.8411 39.1141 36.8457 39.4196Z" fill="#007ED6"/>
<path d="M33.9408 39.4026C33.7893 39.4048 33.6396 39.4368 33.5004 39.4969C33.3612 39.557 33.2352 39.6439 33.1295 39.7527C33.0239 39.8614 32.9408 39.99 32.8849 40.1309C32.8289 40.2718 32.8013 40.4223 32.8036 40.5739V42.8825C32.8036 43.1886 32.9252 43.4822 33.1417 43.6987C33.3582 43.9152 33.6518 44.0368 33.9579 44.0368C34.264 44.0368 34.5576 43.9152 34.7741 43.6987C34.9906 43.4822 35.1122 43.1886 35.1122 42.8825V40.5739C35.1145 40.4195 35.0858 40.2661 35.0277 40.123C34.9697 39.9798 34.8835 39.8497 34.7743 39.7405C34.665 39.6313 34.535 39.5451 34.3918 39.4871C34.2487 39.429 34.0953 39.4003 33.9408 39.4026Z" fill="#007ED6"/>
<path fill-rule="evenodd" clip-rule="evenodd" d="M33.9408 39.4027C33.7892 39.4049 33.6395 39.4369 33.5003 39.497C33.3611 39.557 33.2351 39.644 33.1295 39.7527C33.0239 39.8615 32.9407 39.99 32.8848 40.131C32.8289 40.2719 32.8013 40.4224 32.8035 40.574V42.8826C32.8035 43.1887 32.9252 43.4823 33.1416 43.6988C33.3581 43.9153 33.6517 44.0369 33.9578 44.0369C34.264 44.0369 34.5576 43.9153 34.774 43.6988C34.9905 43.4823 35.1121 43.1887 35.1121 42.8826V40.574C35.1144 40.4195 35.0857 40.2662 35.0277 40.123C34.9697 39.9799 34.8835 39.8498 34.7742 39.7406C34.665 39.6313 34.5349 39.5452 34.3918 39.4871C34.2486 39.4291 34.0953 39.4003 33.9408 39.4027ZM33.9364 39.1027C34.131 39.0998 34.3242 39.136 34.5045 39.2091C34.6848 39.2822 34.8487 39.3908 34.9864 39.5284C35.124 39.6661 35.2326 39.83 35.3057 40.0103C35.3785 40.1899 35.4147 40.3823 35.4121 40.5761V42.8826C35.4121 43.2683 35.2589 43.6382 34.9862 43.9109C34.7134 44.1836 34.3435 44.3369 33.9578 44.3369C33.5721 44.3369 33.2022 44.1836 32.9295 43.9109C32.6568 43.6382 32.5035 43.2683 32.5035 42.8826V40.5761C32.501 40.3859 32.5358 40.1971 32.606 40.0203C32.6764 39.8427 32.7812 39.6808 32.9143 39.5438C33.0473 39.4067 33.2061 39.2972 33.3815 39.2215C33.5568 39.1459 33.7454 39.1055 33.9363 39.1027" fill="#007ED6"/>
<path d="M37.9787 27.2888C37.674 27.2944 37.3839 27.4202 37.1717 27.6388C36.9594 27.8575 36.8422 28.1512 36.8457 28.4559V30.7645C36.8366 30.9214 36.8596 31.0786 36.9133 31.2264C36.9671 31.3741 37.0505 31.5093 37.1583 31.6237C37.2662 31.738 37.3964 31.8291 37.5407 31.8914C37.6851 31.9537 37.8406 31.9859 37.9979 31.9859C38.1551 31.9859 38.3107 31.9537 38.455 31.8914C38.5994 31.8291 38.7295 31.738 38.8374 31.6237C38.9453 31.5093 39.0287 31.3741 39.0824 31.2264C39.1362 31.0786 39.1592 30.9214 39.15 30.7645V28.4559C39.1518 28.3018 39.1226 28.1489 39.0643 28.0062C39.006 27.8635 38.9198 27.734 38.8106 27.6252C38.7014 27.5165 38.5716 27.4307 38.4287 27.3729C38.2858 27.3151 38.1328 27.2865 37.9787 27.2888Z" fill="#007ED6"/>
<path fill-rule="evenodd" clip-rule="evenodd" d="M36.9564 27.4299C37.2238 27.1545 37.5893 26.996 37.9732 26.9889L37.9787 27.2889C37.674 27.2945 37.3839 27.4203 37.1716 27.6389C36.9594 27.8575 36.8422 28.1513 36.8457 28.456V30.7645C36.8365 30.9215 36.8595 31.0787 36.9133 31.2264C36.967 31.3742 37.0504 31.5094 37.1583 31.6237C37.2662 31.7381 37.3963 31.8292 37.5407 31.8915C37.685 31.9538 37.8406 31.9859 37.9978 31.9859C38.155 31.9859 38.3106 31.9538 38.455 31.8915C38.5993 31.8292 38.7295 31.7381 38.8373 31.6237C38.9452 31.5094 39.0286 31.3742 39.0824 31.2264C39.1361 31.0787 39.1591 30.9215 39.15 30.7645V28.456C39.1517 28.3019 39.1226 28.1489 39.0643 28.0063C39.006 27.8636 38.9197 27.7341 38.8105 27.6253C38.7014 27.5165 38.5715 27.4307 38.4286 27.373C38.2858 27.3152 38.1328 27.2866 37.9787 27.2889L37.9742 26.9889C38.1683 26.986 38.3611 27.022 38.5411 27.0948C38.7211 27.1676 38.8847 27.2757 39.0223 27.4128C39.1598 27.5498 39.2685 27.713 39.342 27.8928C39.4152 28.072 39.4519 28.264 39.45 28.4576V30.7563C39.4601 30.951 39.431 31.1457 39.3643 31.329C39.2966 31.5152 39.1915 31.6855 39.0556 31.8296C38.9196 31.9737 38.7557 32.0885 38.5738 32.1669C38.392 32.2454 38.196 32.2859 37.9978 32.2859C37.7997 32.2859 37.6037 32.2454 37.4218 32.1669C37.24 32.0885 37.076 31.9737 36.9401 31.8296C36.8041 31.6855 36.6991 31.5152 36.6314 31.329C36.5647 31.1458 36.5355 30.951 36.5457 30.7563V28.4576C36.5418 28.0743 36.6894 27.705 36.9564 27.4299Z" fill="#007ED6"/>
<path d="M33.9408 28.4432C33.6354 28.4477 33.3442 28.573 33.131 28.7918C32.9178 29.0105 32.8001 29.3049 32.8035 29.6103V31.9189C32.8035 32.225 32.9252 32.5186 33.1416 32.7351C33.3581 32.9516 33.6517 33.0732 33.9578 33.0732C34.264 33.0732 34.5576 32.9516 34.774 32.7351C34.9905 32.5186 35.1121 32.225 35.1121 31.9189V29.6103C35.1139 29.4562 35.0847 29.3033 35.0264 29.1607C34.9681 29.018 34.8819 28.8884 34.7727 28.7797C34.6635 28.6709 34.5336 28.5851 34.3908 28.5273C34.2479 28.4695 34.0949 28.4409 33.9408 28.4432Z" fill="#007ED6"/>
<path fill-rule="evenodd" clip-rule="evenodd" d="M33.9363 28.1434C33.5515 28.149 33.1847 28.3069 32.9161 28.5825L33.9363 28.1434ZM33.9364 28.1433C34.1305 28.1405 34.3232 28.1765 34.5032 28.2493C34.6832 28.3221 34.8468 28.4302 34.9844 28.5672C35.1219 28.7043 35.2306 28.8675 35.3041 29.0473C35.3773 29.2265 35.414 29.4184 35.4121 29.612V31.919C35.4121 32.3047 35.2589 32.6746 34.9861 32.9473C34.7134 33.22 34.3435 33.3733 33.9578 33.3733C33.5721 33.3733 33.2022 33.22 32.9294 32.9473C32.6567 32.6746 32.5035 32.3047 32.5035 31.919V29.612C32.4996 29.2278 32.6479 28.8577 32.9161 28.5825M32.8035 29.6104C32.8 29.305 32.9178 29.0106 33.131 28.7919C33.3441 28.5731 33.6353 28.4478 33.9407 28.4433C34.0948 28.441 34.2478 28.4696 34.3907 28.5274C34.5336 28.5852 34.6635 28.671 34.7726 28.7797C34.8818 28.8885 34.9681 29.0181 35.0264 29.1608C35.0847 29.3034 35.1138 29.4563 35.1121 29.6104V31.919C35.1121 32.2251 34.9905 32.5187 34.774 32.7352C34.5575 32.9516 34.2639 33.0733 33.9578 33.0733C33.6516 33.0733 33.358 32.9516 33.1416 32.7352C32.9251 32.5187 32.8035 32.2251 32.8035 31.919V29.6104Z" fill="#007ED6"/>
<path d="M37.9787 16.3252C37.6733 16.3308 37.3825 16.4572 37.1702 16.6767C36.9578 16.8963 36.8411 17.1911 36.8457 17.4965V19.8009C36.8366 19.9578 36.8596 20.115 36.9133 20.2627C36.9671 20.4105 37.0505 20.5457 37.1583 20.66C37.2662 20.7744 37.3964 20.8655 37.5407 20.9278C37.6851 20.9901 37.8406 21.0222 37.9979 21.0222C38.1551 21.0222 38.3107 20.9901 38.455 20.9278C38.5994 20.8655 38.7295 20.7744 38.8374 20.66C38.9453 20.5457 39.0287 20.4105 39.0824 20.2627C39.1362 20.115 39.1592 19.9578 39.15 19.8009V17.4965C39.1524 17.3421 39.1236 17.1887 39.0656 17.0456C39.0076 16.9024 38.9214 16.7723 38.8121 16.6631C38.7029 16.5539 38.5728 16.4677 38.4297 16.4097C38.2865 16.3516 38.1332 16.3229 37.9787 16.3252Z" fill="#007ED6"/>
<path fill-rule="evenodd" clip-rule="evenodd" d="M37.9787 16.3253L37.9732 16.0253C37.5884 16.0323 37.2221 16.1916 36.9545 16.4682C36.6874 16.7443 36.5405 17.1148 36.5457 17.4987V19.7927C36.5355 19.9874 36.5647 20.1821 36.6314 20.3654C36.6991 20.5515 36.8041 20.7219 36.9401 20.866C37.076 21.0101 37.24 21.1249 37.4218 21.2033C37.6037 21.2818 37.7997 21.3223 37.9978 21.3223C38.196 21.3223 38.392 21.2818 38.5738 21.2033C38.7557 21.1249 38.9196 21.0101 39.0556 20.866C39.1915 20.7219 39.2966 20.5515 39.3643 20.3654C39.431 20.1821 39.4601 19.9874 39.45 19.7927V17.4987C39.4526 17.3049 39.4164 17.1126 39.3436 16.9329C39.2704 16.7526 39.1619 16.5887 39.0242 16.451C38.8866 16.3134 38.7227 16.2048 38.5424 16.1317C38.362 16.0586 38.1688 16.0224 37.9741 16.0253L37.9787 16.3253ZM39.15 17.4966C39.1523 17.3421 39.1236 17.1888 39.0655 17.0456C39.0075 16.9025 38.9213 16.7724 38.8121 16.6632C38.7028 16.5539 38.5728 16.4678 38.4296 16.4097C38.2865 16.3517 38.1331 16.323 37.9787 16.3253C37.6732 16.3308 37.3825 16.4572 37.1701 16.6768C36.9577 16.8964 36.8411 17.1912 36.8457 17.4966V19.8009C36.8365 19.9579 36.8595 20.1151 36.9133 20.2628C36.967 20.4106 37.0504 20.5458 37.1583 20.6601C37.2662 20.7745 37.3963 20.8656 37.5407 20.9279C37.685 20.9901 37.8406 21.0223 37.9978 21.0223C38.155 21.0223 38.3106 20.9901 38.455 20.9279C38.5993 20.8656 38.7295 20.7745 38.8373 20.6601C38.9452 20.5458 39.0286 20.4106 39.0824 20.2628C39.1361 20.1151 39.1591 19.9579 39.15 19.8009V17.4966Z" fill="#007ED6"/>
<path d="M33.9408 17.4796C33.6354 17.4841 33.3442 17.6094 33.131 17.8282C32.9178 18.0469 32.8001 18.3413 32.8035 18.6467V20.9553C32.8035 21.2614 32.9252 21.555 33.1416 21.7715C33.3581 21.9879 33.6517 22.1096 33.9578 22.1096C34.264 22.1096 34.5576 21.9879 34.774 21.7715C34.9905 21.555 35.1121 21.2614 35.1121 20.9553V18.6467C35.1139 18.4926 35.0847 18.3397 35.0264 18.197C34.9681 18.0543 34.8818 17.9248 34.7727 17.816C34.6635 17.7073 34.5336 17.6215 34.3908 17.5637C34.2479 17.5059 34.0949 17.4773 33.9408 17.4796Z" fill="#007ED6"/>
<path fill-rule="evenodd" clip-rule="evenodd" d="M33.9363 17.1797C33.5515 17.1854 33.1847 17.3433 32.9161 17.6189L33.9363 17.1797ZM33.9407 17.4797C33.6353 17.4841 33.3441 17.6095 33.131 17.8282C32.9178 18.047 32.8 18.3413 32.8035 18.6468V20.9553C32.8035 21.2615 32.9251 21.5551 33.1416 21.7715C33.358 21.988 33.6516 22.1096 33.9578 22.1096C34.2639 22.1096 34.5575 21.988 34.774 21.7715C34.9905 21.5551 35.1121 21.2615 35.1121 20.9553V18.6468C35.1138 18.4927 35.0847 18.3397 35.0264 18.1971C34.9681 18.0544 34.8818 17.9249 34.7726 17.8161C34.6634 17.7073 34.5336 17.6215 34.3907 17.5638C34.2478 17.506 34.0948 17.4774 33.9407 17.4797ZM35.4121 18.6484C35.414 18.4548 35.3773 18.2628 35.3041 18.0836C35.2306 17.9038 35.1219 17.7406 34.9844 17.6036C34.8468 17.4665 34.6832 17.3584 34.5032 17.2856C34.3232 17.2129 34.1305 17.1768 33.9364 17.1797M35.4121 18.6484V20.9553C35.4121 21.341 35.2589 21.7109 34.9861 21.9837C34.7134 22.2564 34.3435 22.4096 33.9578 22.4096C33.5721 22.4096 33.2022 22.2564 32.9294 21.9837C32.6567 21.7109 32.5035 21.341 32.5035 20.9553V18.6484C32.4996 18.2642 32.6479 17.8941 32.9161 17.6189" fill="#007ED6"/>
</svg>
