<svg width="42" height="50" viewBox="0 0 42 50" fill="none" xmlns="http://www.w3.org/2000/svg">
<path d="M35.7708 25.3459C35.5937 25.1648 35.3822 25.0208 35.1488 24.9222C34.9154 24.8237 34.6647 24.7725 34.4114 24.7719C34.158 24.7712 33.9071 24.8209 33.6731 24.9182C33.4392 25.0155 33.227 25.1583 33.0488 25.3385C32.8707 25.5186 32.7302 25.7324 32.6355 25.9674C32.5408 26.2024 32.4938 26.4539 32.4973 26.7072C32.5008 26.9605 32.5546 27.2106 32.6558 27.4429C32.7569 27.6752 32.9032 27.8851 33.0863 28.0602C34.7059 29.654 35.991 31.5552 36.8659 33.6524C37.7409 35.7495 38.1881 38.0003 38.1814 40.2726C38.1814 42.6076 31.4884 45.9998 20.9997 45.9998C10.511 45.9998 3.818 42.6059 3.818 40.2688C3.81157 38.0121 4.25284 35.7765 5.11625 33.6915C5.97966 31.6064 7.24806 29.7134 8.84804 28.1219C9.02901 27.9454 9.17314 27.7348 9.27207 27.5023C9.37101 27.2697 9.42278 27.0198 9.42438 26.7671C9.42598 26.5143 9.37738 26.2638 9.2814 26.03C9.18542 25.7962 9.04397 25.5838 8.86526 25.405C8.68654 25.2263 8.47412 25.0849 8.24032 24.9889C8.00651 24.8929 7.75597 24.8443 7.50324 24.8459C7.2505 24.8475 7.0006 24.8993 6.76803 24.9982C6.53546 25.0972 6.32485 25.2413 6.14841 25.4223C4.19242 27.368 2.64182 29.6824 1.58641 32.2315C0.530999 34.7805 -0.00826393 37.5137 -0.00015401 40.2726C-0.00015401 46.4725 10.8186 49.818 20.9997 49.818C31.1808 49.818 41.9996 46.4725 41.9996 40.2726C42.0081 37.4951 41.4614 34.7439 40.3918 32.1806C39.3221 29.6172 37.7511 27.2935 35.7708 25.3459Z" fill="#007ED6"/>
<path d="M20.9998 26.9091C23.6428 26.9091 26.2265 26.1254 28.4242 24.6569C30.6218 23.1885 32.3346 21.1014 33.3461 18.6596C34.3575 16.2177 34.6222 13.5307 34.1066 10.9385C33.5909 8.34619 32.3182 5.96503 30.4492 4.09611C28.5803 2.22718 26.1992 0.954425 23.6069 0.43879C21.0146 -0.0768458 18.3276 0.187797 15.8858 1.19925C13.4439 2.21071 11.3568 3.92355 9.88839 6.12117C8.41999 8.3188 7.63623 10.9025 7.63623 13.5456C7.64032 17.0885 9.04958 20.4852 11.5548 22.9905C14.0601 25.4958 17.4568 26.905 20.9998 26.9091ZM20.9998 4.00017C22.8877 4.00017 24.7332 4.56 26.3029 5.60886C27.8726 6.65772 29.0961 8.14851 29.8186 9.8927C30.541 11.6369 30.7301 13.5561 30.3618 15.4078C29.9934 17.2594 29.0843 18.9602 27.7494 20.2952C26.4144 21.6301 24.7136 22.5392 22.862 22.9075C21.0104 23.2759 19.0911 23.0868 17.3469 22.3644C15.6027 21.6419 14.1119 20.4184 13.0631 18.8487C12.0142 17.279 11.4544 15.4335 11.4544 13.5456C11.4574 11.0149 12.464 8.5887 14.2535 6.79924C16.0429 5.00978 18.4691 4.00315 20.9998 4.00017Z" fill="#007ED6"/>
</svg>
