<svg width="50" height="50" viewBox="0 0 50 50" fill="none" xmlns="http://www.w3.org/2000/svg">
<g clip-path="url(#clip0_789_889)">
<path d="M42.6727 7.32246C37.9521 2.60049 31.6759 0 25 0C18.3241 0 12.0479 2.60049 7.32734 7.32246C2.60693 12.0443 0.00732422 18.3224 0.00732422 25C0.00732422 31.6776 2.60693 37.9557 7.32734 42.6775C12.0479 47.3995 18.3241 50 25 50C31.6759 50 37.9521 47.3995 42.6727 42.6775C47.3931 37.9557 49.9927 31.6777 49.9927 25C49.9927 18.3223 47.3931 12.0443 42.6727 7.32246ZM25 47.0703C23.3548 47.0703 21.5424 44.8492 20.1519 41.129C19.6376 39.7531 19.1976 38.2285 18.837 36.59C20.2761 35.9253 21.3775 34.6522 21.8104 33.1021H31.7856C31.3659 36.0868 30.7118 38.818 29.848 41.129C28.4576 44.8492 26.6452 47.0703 25 47.0703ZM11.3065 30.1724H3.54443C3.14434 28.4979 2.93701 26.765 2.93701 25C2.93701 22.6754 3.29531 20.4062 3.98311 18.2538H15.0958C14.8605 20.4215 14.7383 22.687 14.7383 25C14.7383 25.4996 14.746 25.9961 14.7573 26.4908C13.0867 27.0772 11.7862 28.4549 11.3065 30.1724ZM16.5586 29.1135C17.9502 29.1135 19.0824 30.2456 19.0824 31.6373C19.0824 33.029 17.9502 34.1611 16.5586 34.1611C15.167 34.1611 14.0348 33.0289 14.0348 31.6373C14.0348 30.2457 15.167 29.1135 16.5586 29.1135ZM21.8105 30.1724C21.2678 28.229 19.6743 26.7201 17.6831 26.301C17.6742 25.8692 17.6681 25.436 17.6681 25C17.6681 22.6759 17.7958 20.4081 18.0416 18.2538H27.9738C28.5314 20.2505 30.1987 21.7876 32.2665 22.1562C32.3094 23.092 32.3318 24.0409 32.3318 25C32.3318 26.765 32.2579 28.4974 32.1149 30.1724H21.8105ZM25 2.92969C26.6452 2.92969 28.4576 5.15078 29.8481 8.871C30.2015 9.81611 30.5193 10.832 30.8008 11.9064C29.4337 12.5883 28.3921 13.8271 27.9739 15.3242H18.4613C18.8743 12.9513 19.4423 10.7694 20.152 8.871C21.5424 5.15078 23.3548 2.92969 25 2.92969ZM33.2259 19.3128C31.8343 19.3128 30.7021 18.1807 30.7021 16.789C30.7021 15.3973 31.8343 14.2651 33.2259 14.2651C34.6175 14.2651 35.7497 15.3973 35.7497 16.789C35.7497 18.1807 34.6175 19.3128 33.2259 19.3128ZM35.1859 21.8768C36.78 21.2605 38.0136 19.9166 38.4779 18.2539H46.0169C46.7047 20.4062 47.063 22.6754 47.063 25.0001C47.063 26.7651 46.8557 28.4981 46.4556 30.1725H35.0536C35.1908 28.4904 35.2616 26.759 35.2616 25.0001C35.2616 23.9474 35.2356 22.905 35.1859 21.8768ZM44.8405 15.3241H38.4779C37.8757 13.1679 35.9794 11.5474 33.6822 11.3561C33.364 10.1122 33.0003 8.93652 32.5924 7.84521C31.971 6.18271 31.2621 4.76748 30.4844 3.61406C34.2792 4.58086 37.7594 6.55147 40.6008 9.39375C42.358 11.1516 43.7808 13.1543 44.8405 15.3241ZM9.39922 9.39375C12.2406 6.55147 15.7208 4.58086 19.5156 3.61406C18.7379 4.76748 18.029 6.18271 17.4076 7.84521C16.587 10.0406 15.9428 12.5744 15.4926 15.3241H5.15947C6.21924 13.1543 7.64199 11.1516 9.39922 9.39375ZM4.46611 33.1021H11.3065C11.8947 35.2082 13.7174 36.8035 15.9425 37.055C16.3393 38.8942 16.8297 40.6085 17.4077 42.1547C18.0291 43.8172 18.738 45.2324 19.5157 46.3858C15.7209 45.419 12.2407 43.4484 9.39932 40.6062C7.22451 38.4308 5.56094 35.8808 4.46611 33.1021ZM40.6008 40.6063C37.7594 43.4485 34.2792 45.4191 30.4844 46.3859C31.2621 45.2325 31.971 43.8173 32.5924 42.1548C33.5673 39.5464 34.2938 36.4607 34.7409 33.1021H45.5339C44.4391 35.8808 42.7755 38.4308 40.6008 40.6063Z" fill="#007ED6"/>
</g>
<defs>
<clipPath id="clip0_789_889">
<rect width="50" height="50" fill="white"/>
</clipPath>
</defs>
</svg>
