<svg width="50" height="50" viewBox="0 0 50 50" fill="none" xmlns="http://www.w3.org/2000/svg">
<path fill-rule="evenodd" clip-rule="evenodd" d="M25 27C25.7408 27 26.421 27.4095 26.7676 28.0642L35.7676 45.0642C36.0958 45.6841 36.0752 46.4307 35.7134 47.0316C35.3516 47.6325 34.7014 48 34 48H16C15.2986 48 14.6484 47.6325 14.2866 47.0316C13.9248 46.4307 13.9042 45.6841 14.2324 45.0642L23.2324 28.0642C23.579 27.4095 24.2592 27 25 27ZM19.3218 44H30.6782L25 33.2745L19.3218 44Z" fill="#007ED6"/>
<path fill-rule="evenodd" clip-rule="evenodd" d="M4.3 10C4.2298 10 4.15656 10.028 4.09801 10.0874C4.03849 10.1478 4 10.2357 4 10.3333V33.6667C4 33.7643 4.0385 33.8522 4.09801 33.9126C4.15655 33.972 4.2298 34 4.3 34H11.2V38H4.3C3.15021 38 2.05342 37.5364 1.2493 36.7206C0.446147 35.9058 0 34.8067 0 33.6667V10.3333C0 9.19327 0.446148 8.09421 1.2493 7.27941C2.05342 6.46364 3.15021 6 4.3 6H45.7C46.8498 6 47.9466 6.46364 48.7507 7.27941C49.5539 8.09421 50 9.19328 50 10.3333V33.6667C50 34.8067 49.5539 35.9058 48.7507 36.7206C47.9466 37.5364 46.8498 38 45.7 38H38.8V34H45.7C45.7702 34 45.8434 33.972 45.902 33.9126C45.9615 33.8522 46 33.7643 46 33.6667V10.3333C46 10.2357 45.9615 10.1478 45.902 10.0874C45.8434 10.028 45.7702 10 45.7 10H4.3Z" fill="#007ED6"/>
</svg>
